<svg xmlns="http://www.w3.org/2000/svg" width="1200" height="630" viewBox="0 0 1200 630" role="img" aria-label="Comparador gratuito e sem anúncios para troca de figurinhas da Copa">
  <defs>
    <linearGradient id="bg" x1="0" x2="1" y1="0" y2="1">
      <stop offset="0" stop-color="#087a35"/>
      <stop offset="0.52" stop-color="#0b7650"/>
      <stop offset="1" stop-color="#1148a8"/>
    </linearGradient>
  </defs>
  <rect width="1200" height="630" fill="url(#bg)"/>
  <g fill="none" stroke="#ffffff" stroke-linecap="round" opacity="0.16">
    <path d="M600 0V630" stroke-width="5"/>
    <path d="M0 315H1200" stroke-width="5"/>
    <rect x="448" y="80" width="304" height="470" stroke-width="5"/>
    <circle cx="600" cy="315" r="86" stroke-width="5"/>
  </g>
  <rect x="76" y="88" width="1048" height="454" rx="28" fill="#0b1728" opacity="0.26"/>
  <g transform="translate(118 144) scale(3.2)">
    <rect width="64" height="64" rx="15" fill="#087a35"/>
    <g transform="rotate(-8 27 33)">
      <rect x="13" y="16" width="25" height="34" rx="5" fill="#f8fbff"/>
      <rect x="17" y="21" width="17" height="12" rx="2" fill="#1148a8"/>
      <path d="M18 39h14" stroke="#162033" stroke-width="3" stroke-linecap="round"/>
      <path d="M18 44h10" stroke="#8aa2c6" stroke-width="3" stroke-linecap="round"/>
    </g>
    <g transform="rotate(8 38 31)">
      <rect x="26" y="12" width="25" height="34" rx="5" fill="#f7c948"/>
      <rect x="30" y="17" width="17" height="12" rx="2" fill="#ffffff"/>
      <path d="M31 35h14" stroke="#162033" stroke-width="3" stroke-linecap="round"/>
      <path d="M31 40h10" stroke="#8a6b00" stroke-width="3" stroke-linecap="round"/>
    </g>
    <circle cx="32" cy="32" r="12" fill="#ffffff"/>
    <path d="M26 30h14l-4-4" fill="none" stroke="#087a35" stroke-width="4" stroke-linecap="round" stroke-linejoin="round"/>
    <path d="M38 35H24l4 4" fill="none" stroke="#087a35" stroke-width="4" stroke-linecap="round" stroke-linejoin="round"/>
  </g>
  <text x="372" y="174" fill="#f7c948" font-family="Arial, sans-serif" font-size="29" font-weight="700">COPA DO MUNDO 2026</text>
  <text x="372" y="264" fill="#ffffff" font-family="Arial, sans-serif" font-size="64" font-weight="900">Comparador de trocas</text>
  <text x="372" y="336" fill="#eaf2ff" font-family="Arial, sans-serif" font-size="32" font-weight="700">Organize figurinhas faltando e repetidas</text>
  <text x="372" y="384" fill="#eaf2ff" font-family="Arial, sans-serif" font-size="32" font-weight="700">para montar uma proposta equilibrada.</text>
  <g transform="translate(372 456)">
    <rect width="310" height="58" rx="29" fill="#f7c948"/>
    <text x="155" y="39" text-anchor="middle" fill="#162033" font-family="Arial, sans-serif" font-size="25" font-weight="900">GRATUITO</text>
    <rect x="332" width="330" height="58" rx="29" fill="#ffffff"/>
    <text x="497" y="39" text-anchor="middle" fill="#087a35" font-family="Arial, sans-serif" font-size="25" font-weight="900">SEM ANÚNCIOS</text>
  </g>
</svg>
